<svg width="511" height="311" viewBox="0 0 511 311" fill="none" xmlns="http://www.w3.org/2000/svg">
<path d="M0.823341 5.30096C71.4916 -4.74233 143.554 2.94881 210.517 27.6812C238.058 37.9039 264.988 51.2643 286.307 71.4787C307.627 91.693 322.867 119.53 323.214 148.924C323.466 171.53 315.042 193.381 304.466 213.372C290.178 240.369 271.415 265.492 246.895 283.718C222.375 301.944 191.673 312.85 161.225 310.263C142.473 308.678 122.465 300.474 114.611 283.386C109.097 271.431 110.623 257.303 114.942 244.865C125.187 215.19 149.997 192.502 177.403 177.159C227.599 149.064 287.663 142.356 344.85 148.783C402.037 155.211 457.056 173.965 510.896 194.295" stroke="url(#paint0_linear_23_59)" stroke-width="0.25" stroke-miterlimit="10"/>
<defs>
<linearGradient id="paint0_linear_23_59" x1="111" y1="9.5" x2="289.5" y2="243.5" gradientUnits="userSpaceOnUse">
<stop/>
<stop offset="0.9998" stop-color="#DB1414"/>
<stop offset="0.9999" stop-color="#DB1414"/>
</linearGradient>
</defs>
</svg>
