<svg width="393" height="357" viewBox="0 0 393 357" fill="none" xmlns="http://www.w3.org/2000/svg">
<path d="M80.716 356.237C109.746 349.816 137.402 343.23 165.175 334.043C195.606 323.671 222.252 310.523 251.557 296.191C260.892 291.394 267.626 286.481 276.961 281.685C310.516 259.722 335.025 236.052 359.884 204.578C379.308 178.075 394.831 151.397 392.439 117.404C390.535 101.679 384.73 85.7794 373.491 74.8511C352.255 54.3533 322.578 47.8155 293.854 49.1403C249.467 51.0695 207.274 62.2199 167.16 85.1933C148.432 96.0876 128.345 108.225 124.758 130.221C122.703 147.073 133.71 163.204 149.082 169.104C190.114 183.968 234.849 174.235 274.615 159.066C313.081 143.839 353.37 116.963 360.545 72.97C362.159 62.1913 360.373 51.1776 355.436 41.4618C349.341 32.0664 344.487 24.0297 335.617 18.4205C320.361 9.91962 306.289 4.07825 289.442 2.02308C185.643 -7.82252 90.82 43.9895 0.857073 86.4519" stroke="url(#paint0_linear_28_81)" stroke-opacity="0.7" stroke-width="0.5" stroke-miterlimit="10"/>
<defs>
<linearGradient id="paint0_linear_28_81" x1="185.414" y1="360.909" x2="201.62" y2="-2.23459" gradientUnits="userSpaceOnUse">
<stop/>
<stop offset="1" stop-color="#660606"/>
</linearGradient>
</defs>
</svg>
