<svg width="390" height="343" viewBox="0 0 390 343" fill="none" xmlns="http://www.w3.org/2000/svg">
<path d="M328.918 0.307348C299.498 4.59873 271.435 9.15519 243.068 16.2978C211.963 24.4286 184.431 35.6029 154.161 47.7654C144.502 51.8703 137.428 56.2803 127.769 60.3853C92.7058 79.8488 66.539 101.673 39.4571 131.255C18.1561 156.275 0.733311 181.753 0.645898 215.83C1.40107 231.652 6.03439 247.932 16.4487 259.649C36.137 281.637 65.2594 290.316 94.0042 291.085C138.414 292.39 181.306 284.338 222.986 264.344C242.456 254.841 263.372 244.197 268.551 222.52C271.826 205.862 262.022 188.973 247.119 181.971C207.278 164.161 161.953 170.614 121.188 182.85C81.7168 195.238 39.5799 219.112 29.2233 262.466C26.8296 273.099 27.8094 284.214 32.0264 294.263C37.4223 304.077 41.678 312.445 50.1169 318.685C64.7144 328.273 78.3242 335.123 94.977 338.398C197.784 355.769 296.125 310.992 388.939 275.187" stroke="url(#paint0_linear_23_58)" stroke-width="0.5" stroke-miterlimit="10"/>
<defs>
<linearGradient id="paint0_linear_23_58" x1="224.837" y1="-11.9692" x2="182.256" y2="349.033" gradientUnits="userSpaceOnUse">
<stop/>
<stop offset="1" stop-color="#660606"/>
</linearGradient>
</defs>
</svg>
